<?xml version="1.0" encoding="utf-8"?>
<!-- Generator: Adobe Illustrator 17.0.0, SVG Export Plug-In . SVG Version: 6.00 Build 0)  -->
<!DOCTYPE svg PUBLIC "-//W3C//DTD SVG 1.1//EN" "http://www.w3.org/Graphics/SVG/1.1/DTD/svg11.dtd">
<svg version="1.1" id="Layer_1" xmlns="http://www.w3.org/2000/svg" xmlns:xlink="http://www.w3.org/1999/xlink" x="0px" y="0px"
	 width="504px" height="360px" viewBox="0 0 504 360" enable-background="new 0 0 504 360" xml:space="preserve">
<path opacity="0.4" fill="#F3DDA5" d="M243.693,47.232"/>
<g opacity="0.4">
	<path fill="#FFFFFF" d="M250.324,51.097v6.599h-11.777v-6.539c-24.422,2.747-43.329,21.617-43.329,44.503
		c0,24.776,22.152,44.86,49.478,44.86s49.478-20.085,49.478-44.86C294.174,72.611,274.999,53.632,250.324,51.097z"/>
	<path fill="#FFFFFF" d="M297.323,52.329c0,0,0.35,12.813-8.856,23.09c-3.888,4.34,0,2.638,0,2.638L271.821,59.38
		C271.821,59.381,284.788,47.711,297.323,52.329z"/>
	<path fill="#FFFFFF" d="M191.148,52.172c0,0,10.955-4.554,21.073,4.827c3.273,3.035,4.656,4.029,4.656,4.029L198.12,79.604
		C198.119,79.604,186.53,64.707,191.148,52.172z"/>
	<circle fill="#E17659" cx="245.881" cy="102.147" r="15.338"/>
	<path fill="#FFFFFF" d="M284.063,122.827l4.834,21.982h-12.864l-8.788-9.222C267.245,135.587,281.479,126.215,284.063,122.827z"/>
	<line fill="none" x1="284.063" y1="122.827" x2="267.245" y2="135.587"/>
	<path fill="#FFFFFF" d="M205.33,122.827c0,0-4.505,17.034-4.505,21.982H212.7c0,0,7.496-9.3,13.695-7.471L205.33,122.827z"/>
	<circle fill="#E17659" cx="251.509" cy="79.094" r="1.365"/>
	<circle fill="#E17659" cx="239.538" cy="79.094" r="1.365"/>
	<circle fill="#FFFFFF" cx="239.747" cy="102.147" r="2.116"/>
	<circle fill="#FFFFFF" cx="253.522" cy="102.147" r="2.116"/>
</g>
<g opacity="0.4">
	<circle fill="#D09D3E" cx="243.693" cy="24.89" r="14.845"/>
	<circle fill="#EAAE34" cx="243.693" cy="24.89" r="13.74"/>
	<circle fill="#F4CB62" cx="243.693" cy="24.89" r="11.055"/>
	<text transform="matrix(1 0 0 1 238.8998 31.0145)" fill="#F7F0D3" font-family="'Helvetica-Bold'" font-size="18.121">$</text>
</g>
<text transform="matrix(1 0 0 1 186.0393 197.9589)" opacity="0.4" fill="#FFFFFF" enable-background="new    " font-family="'Dooodleista-Bold'" font-size="46.2488">PIGGY BACK</text>
<text transform="matrix(1 0 0 1 161.2948 240.3036)" opacity="0.4" fill="#FFFFFF" enable-background="new    " font-family="'Corki-Regular'" font-size="25.6949"> GETTING</text>
<text transform="matrix(1 0 0 1 234.2148 240.3036)" opacity="0.4" fill="#FFFFFF" enable-background="new    " font-family="'Corki-Regular'" font-size="25.6949" letter-spacing="1"> </text>
<text transform="matrix(1 0 0 1 243.2088 240.3036)" opacity="0.4" fill="#FFFFFF" enable-background="new    " font-family="'Corki-Regular'" font-size="25.6949">EVERYONE’S</text>
<text transform="matrix(1 0 0 1 79.2368 331.1166)" opacity="0.4" fill="#FFFFFF" enable-background="new    " font-family="'Duke-Regular'" font-size="100.8875">MONEY B</text>
<text transform="matrix(1 0 0 1 317.3258 331.1166)" opacity="0.4" fill="#FFFFFF" enable-background="new    " font-family="'Duke-Regular'" font-size="100.8875">A</text>
<text transform="matrix(1 0 0 1 351.4248 331.1166)" opacity="0.4" fill="#FFFFFF" enable-background="new    " font-family="'Duke-Regular'" font-size="100.8875">CK</text>
<line opacity="0.4" fill="none" stroke="#FFFFFF" stroke-width="2.0148" stroke-miterlimit="10" x1="357.665" y1="225.951" x2="417.62" y2="225.951"/>
<line opacity="0.4" fill="none" stroke="#FFFFFF" stroke-width="2.0148" stroke-miterlimit="10" x1="357.665" y1="234.888" x2="417.62" y2="234.888"/>
<line opacity="0.4" fill="none" stroke="#FFFFFF" stroke-width="2.0148" stroke-miterlimit="10" x1="83.586" y1="225.951" x2="143.541" y2="225.951"/>
<line opacity="0.4" fill="none" stroke="#FFFFFF" stroke-width="2.0148" stroke-miterlimit="10" x1="83.586" y1="234.888" x2="143.541" y2="234.888"/>
<polygon fill="#F4CB62" points="233.167,150.986 233.167,231.681 292.211,190.349 "/>
<path fill="#F4CB62" d="M249.5,136.5c-30.928,0-56,25.072-56,56s25.072,56,56,56s56-25.072,56-56S280.428,136.5,249.5,136.5z
	 M249.5,243.833c-28.351,0-51.333-22.983-51.333-51.333s22.983-51.333,51.333-51.333s51.333,22.983,51.333,51.333
	S277.851,243.833,249.5,243.833z"/>
</svg>
