<?xml version="1.0" encoding="utf-8"?>
<!-- Generator: Adobe Illustrator 17.0.0, SVG Export Plug-In . SVG Version: 6.00 Build 0)  -->
<!DOCTYPE svg PUBLIC "-//W3C//DTD SVG 1.1//EN" "http://www.w3.org/Graphics/SVG/1.1/DTD/svg11.dtd">
<svg version="1.1" id="Layer_1" xmlns="http://www.w3.org/2000/svg" xmlns:xlink="http://www.w3.org/1999/xlink" x="0px" y="0px"
	 width="504px" height="360px" viewBox="0 0 504 360" enable-background="new 0 0 504 360" xml:space="preserve">
<path fill="#F3DDA5" d="M229.693,120.232"/>
<g>
	<path fill="#FFFFFF" d="M236.324,124.097v6.599h-11.777v-6.539c-24.422,2.747-43.329,21.617-43.329,44.503
		c0,24.776,22.152,44.86,49.478,44.86s49.478-20.085,49.478-44.86C280.174,145.611,260.999,126.632,236.324,124.097z"/>
	<path fill="#FFFFFF" d="M283.323,125.329c0,0,0.35,12.813-8.856,23.09c-3.888,4.34,0,2.638,0,2.638l-16.646-18.677
		C257.821,132.381,270.788,120.711,283.323,125.329z"/>
	<path fill="#FFFFFF" d="M177.148,125.172c0,0,10.955-4.554,21.073,4.827c3.273,3.035,4.656,4.029,4.656,4.029l-18.757,18.576
		C184.119,152.604,172.53,137.707,177.148,125.172z"/>
	<circle fill="#E17659" cx="231.881" cy="175.147" r="15.338"/>
	<path fill="#FFFFFF" d="M270.063,195.827l4.834,21.982h-12.864l-8.788-9.222C253.245,208.587,267.479,199.215,270.063,195.827z"/>
	<line fill="none" x1="270.063" y1="195.827" x2="253.245" y2="208.587"/>
	<path fill="#FFFFFF" d="M191.33,195.827c0,0-4.505,17.034-4.505,21.982H198.7c0,0,7.496-9.3,13.695-7.471L191.33,195.827z"/>
	<circle fill="#E17659" cx="237.509" cy="152.094" r="1.365"/>
	<circle fill="#E17659" cx="225.538" cy="152.094" r="1.365"/>
	<circle fill="#FFFFFF" cx="225.747" cy="175.147" r="2.116"/>
	<circle fill="#FFFFFF" cx="239.522" cy="175.147" r="2.116"/>
</g>
<g>
	<circle fill="#D09D3E" cx="229.693" cy="97.89" r="14.845"/>
	<circle fill="#EAAE34" cx="229.693" cy="97.89" r="13.74"/>
	<circle fill="#F4CB62" cx="229.693" cy="97.89" r="11.055"/>
	<text transform="matrix(1 0 0 1 224.8998 104.0145)" fill="#F7F0D3" font-family="'Helvetica-Bold'" font-size="18.121">$</text>
</g>
</svg>
