<?xml version="1.0" encoding="utf-8"?>
<!-- Generator: Adobe Illustrator 17.0.0, SVG Export Plug-In . SVG Version: 6.00 Build 0)  -->
<!DOCTYPE svg PUBLIC "-//W3C//DTD SVG 1.1//EN" "http://www.w3.org/Graphics/SVG/1.1/DTD/svg11.dtd">
<svg version="1.1" id="Layer_1" xmlns="http://www.w3.org/2000/svg" xmlns:xlink="http://www.w3.org/1999/xlink" x="0px" y="0px"
	 width="546px" height="100px" viewBox="-223.5 0 546 100" enable-background="new -223.5 0 546 100" xml:space="preserve">
<path fill="#E1C795" d="M74.16,14.178c0-6.911-5.157-12.514-11.52-12.514H26.162c-6.362,0-11.52,5.603-11.52,12.514v71.608
	c0,6.911,5.157,12.514,11.52,12.514H62.64c6.362,0,11.52-5.603,11.52-12.514V14.178z"/>
<path fill="#F3DDA5" d="M74.16,13.597c0-6.591-5.157-11.934-11.52-11.934H26.162c-6.362,0-11.52,5.343-11.52,11.934v68.289
	c0,6.591,5.157,11.934,11.52,11.934H62.64c6.362,0,11.52-5.343,11.52-11.934V13.597z"/>
<path fill="#E17659" d="M67,17.624c0-5.103-4.083-9.241-9.12-9.241H29.001c-5.037,0-9.12,4.137-9.12,9.241V70.5
	c0,5.103,4.083,9.241,9.12,9.241H57.88c5.037,0,9.12-4.137,9.12-9.241V17.624z"/>
<g>
	<path fill="#F0CC6B" d="M50.814,36.65c-1.074-1.775-4.129-3.138-6.979-3.138c-3.427,0-6.565,0.991-6.565,3.881
		c0,2.725,3.262,3.221,6.73,3.633c6.028,0.743,12.47,1.817,12.47,9.084c0,5.574-4.665,8.712-9.785,9.084v4.129H41.44V59.4
		c-4.625-0.412-8.918-2.519-10.859-7.061l4.873-2.064c1.115,2.643,4.79,4.336,8.217,4.336c3.716,0,7.144-1.28,7.144-4.501
		c0-2.725-3.428-3.716-7.268-4.17c-5.905-0.661-11.685-1.693-11.685-8.547c0-5.409,4.79-7.887,9.579-8.464v-3.592h5.245v3.592
		c3.509,0.537,6.73,1.858,8.588,5.657L50.814,36.65z"/>
</g>
<circle fill="#E17659" cx="43.441" cy="86.949" r="4.687"/>
<g>
	
		<rect x="267.424" y="-0.831" transform="matrix(-0.4517 -0.8922 0.8922 -0.4517 386.0118 300.6075)" fill="#B8E1DC" width="35.906" height="65.04"/>
	
		<rect x="254.505" y="15.368" transform="matrix(0.8922 -0.4517 0.4517 0.8922 16.4711 132.3385)" fill="#B8E1DC" width="61.817" height="32.607"/>
	<circle fill="#46A49C" cx="285.389" cy="31.343" r="13.197"/>
	<path fill="#46A49C" d="M320.353,32.255l-14.729-29.09l-55.151,27.923l14.729,29.09L320.353,32.255z M306.591,11.09l7.871,15.547
		c-0.439,0.036-0.879,0.154-1.296,0.365c-1.729,0.876-2.421,2.987-1.546,4.717c0.323,0.637,0.814,1.132,1.391,1.461l-42.598,21.567
		c-0.027-0.469-0.146-0.939-0.372-1.385c-0.876-1.729-2.987-2.421-4.717-1.546c-0.523,0.265-0.949,0.643-1.267,1.089l-8.236-16.268
		c0.548,0.007,1.105-0.112,1.628-0.377c1.729-0.876,2.421-2.987,1.546-4.717c-0.291-0.575-0.721-1.033-1.227-1.359l42.675-21.607
		c-0.036,0.601,0.078,1.218,0.369,1.793c0.876,1.729,2.987,2.421,4.717,1.546C305.947,11.707,306.302,11.423,306.591,11.09z"/>
	
		<text transform="matrix(0.4517 0.8922 0.8922 -0.4517 291.4713 23.2983)" fill="#FFFFFF" font-family="'Metropolis1920'" font-size="21.0605">$</text>
</g>
<path fill="#E17659" d="M224.355,38.111l0.002,13.701l-12.555,29.117c0,0-9.132,16.557,6.282,18.838l94.195-0.013
	c0,0,11.988-2.285,6.848-15.986L303.71,54.325l1.14-16.225L224.355,38.111"/>
<path fill="#F0CC6B" d="M271.573,11.654c-3.31-0.053-6.037,2.587-6.09,5.897c-0.032,1.992,0.915,3.767,2.392,4.881l-2.857,7.591
	l2.763,1.04l2.819-7.491c0.255,0.037,0.514,0.065,0.779,0.069c3.31,0.053,6.037-2.587,6.09-5.897S274.883,11.707,271.573,11.654z"/>
<path fill="#F0CC6B" d="M262.934,29.573l-3.835-7.762c1.502-1.067,2.497-2.804,2.529-4.788c0.053-3.31-2.587-6.037-5.897-6.09
	c-3.31-0.053-6.037,2.587-6.09,5.897c-0.053,3.31,2.587,6.037,5.897,6.09c0.269,0.004,0.533-0.015,0.793-0.046l3.955,8.006
	L262.934,29.573z"/>
<path fill="#F0CC6B" d="M307.708,33.559c-0.004,2.522-2.052,4.564-4.574,4.56L224.924,38c-2.522-0.004-4.564-2.052-4.56-4.574l0,0
	c0.004-2.522,2.052-4.564,4.574-4.56l78.21,0.12C305.67,28.989,307.712,31.037,307.708,33.559L307.708,33.559z"/>
<path fill="#E17659" d="M-167.933,14.217v7.916h-12.117v-8.03c-21.886,2.485-38.822,19.403-38.822,39.92
	c0,22.227,19.873,40.246,44.389,40.246c24.515,0,44.389-18.019,44.389-40.246C-130.096,33.814-146.525,17.089-167.933,14.217z"/>
<path fill="#E17659" d="M-127.271,15.149c0,0,0.314,11.495-7.945,20.715c-3.488,3.894,0,2.367,0,2.367l-14.934-16.756
	C-150.15,21.475-138.516,11.006-127.271,15.149z"/>
<path fill="#E17659" d="M-222.525,15.008c0,0,9.828-4.086,18.905,4.331c2.937,2.723,4.177,3.614,4.177,3.614l-16.828,16.665
	C-216.27,39.618-226.668,26.253-222.525,15.008z"/>
<path fill="#E17659" d="M-129.557,10.576"/>
<path fill="#E17659" d="M-139.167,78.395l4.337,19.721h-11.541l-7.884-8.273C-154.255,89.843-141.485,81.435-139.167,78.395z"/>
<line fill="#E17659" x1="-139.167" y1="78.395" x2="-154.255" y2="89.843"/>
<path fill="#E17659" d="M-209.801,78.395c0,0-4.041,15.282-4.041,19.721h10.653c0,0,6.725-8.343,12.286-6.703L-209.801,78.395z"/>
<circle fill="#FFFFFF" cx="-166.816" cy="41.905" r="1.683"/>
<circle fill="#FFFFFF" cx="-180.211" cy="41.905" r="1.683"/>
<g>
	<circle fill="#FFFFFF" cx="-173.651" cy="63.015" r="13.76"/>
	<circle fill="#E17659" cx="-179.154" cy="63.015" r="1.899"/>
	<circle fill="#E17659" cx="-166.796" cy="63.015" r="1.899"/>
</g>
</svg>
